<svg width="20" height="18" viewBox="0 0 20 18" fill="none" xmlns="http://www.w3.org/2000/svg">
<path fill-rule="evenodd" clip-rule="evenodd" d="M0 2V14C0 14.55 0.195833 15.0208 0.5875 15.4125C0.979167 15.8042 1.45 16 2 16H5V14H2V2H18V14H15V16H18C18.55 16 19.0208 15.8042 19.4125 15.4125C19.8042 15.0208 20 14.55 20 14V2C20 1.45 19.8042 0.979167 19.4125 0.5875C19.0208 0.195833 18.55 0 18 0H2C1.45 0 0.979167 0.195833 0.5875 0.5875C0.195833 0.979167 0 1.45 0 2ZM10 12L4 18H16L10 12Z" fill="#333333"/>
</svg>
