<svg width="20" height="16" viewBox="0 0 20 16" fill="none" xmlns="http://www.w3.org/2000/svg">
<path fill-rule="evenodd" clip-rule="evenodd" d="M13 16H18C18.55 16 19.0208 15.8042 19.4125 15.4125C19.8042 15.0208 20 14.55 20 14V2C20 1.45 19.8042 0.979167 19.4125 0.5875C19.0208 0.195833 18.55 0 18 0H2C1.45 0 0.979167 0.195833 0.5875 0.5875C0.195833 0.979167 0 1.45 0 2V3C0.333333 3 0.666667 3.0125 1 3.0375C1.33333 3.0625 1.66667 3.1 2 3.15V2H18V14H12.85C12.9 14.3333 12.9375 14.6667 12.9625 15C12.9875 15.3333 13 15.6667 13 16ZM16 12H12.375C12.2583 11.65 12.1292 11.3042 11.9875 10.9625C11.8458 10.6208 11.7 10.3 11.55 10H14V6H8.325C7.84167 5.58333 7.32083 5.20833 6.7625 4.875C6.20417 4.54167 5.625 4.25 5.025 4H16V12ZM0 16V13C0.833333 13 1.54167 13.2917 2.125 13.875C2.70833 14.4583 3 15.1667 3 16H0ZM3.5375 12.4625C4.5125 13.4375 5 14.6167 5 16H7C7 14.05 6.32083 12.3958 4.9625 11.0375C3.60417 9.67917 1.95 9 0 9V11C1.38333 11 2.5625 11.4875 3.5375 12.4625ZM9 16C9 14.75 8.7625 13.5792 8.2875 12.4875C7.8125 11.3958 7.17083 10.4458 6.3625 9.6375C5.55417 8.82917 4.60417 8.1875 3.5125 7.7125C2.42083 7.2375 1.25 7 0 7V5C1.51667 5 2.94167 5.2875 4.275 5.8625C5.60833 6.4375 6.775 7.225 7.775 8.225C8.775 9.225 9.5625 10.3917 10.1375 11.725C10.7125 13.0583 11 14.4833 11 16H9Z" fill="black"/>
</svg>
