<svg width="16" height="16" viewBox="0 0 16 16" fill="none" xmlns="http://www.w3.org/2000/svg">
<path fill-rule="evenodd" clip-rule="evenodd" d="M1.73212 8.00004C1.73212 4.31337 4.63109 1.33337 8.21752 1.33337C11.804 1.33337 14.7029 4.31337 14.7029 8.00004C14.7029 11.6867 11.804 14.6667 8.21752 14.6667C4.63109 14.6667 1.73212 11.6867 1.73212 8.00004ZM10.0918 10.8667C10.3447 11.1267 10.7533 11.1267 11.0062 10.8667C11.2527 10.6067 11.2527 10.18 11.0062 9.92671L9.13196 8.00004L11.0062 6.07337C11.2592 5.81337 11.2592 5.39337 11.0062 5.13337C10.7533 4.87337 10.3447 4.87337 10.0918 5.13337L8.21752 7.06004L6.34324 5.13337C6.09031 4.87337 5.68173 4.87337 5.4288 5.13337C5.17587 5.39337 5.17587 5.81337 5.4288 6.07337L7.30308 8.00004L5.4288 9.92671C5.17587 10.1867 5.17587 10.6067 5.4288 10.8667C5.68173 11.1267 6.09031 11.1267 6.34324 10.8667L8.21752 8.94004L10.0918 10.8667Z" fill="#949494"/>
</svg>
