<svg width="12" height="16" viewBox="0 0 12 16" fill="none" xmlns="http://www.w3.org/2000/svg">
<path fill-rule="evenodd" clip-rule="evenodd" d="M10.364 5.33333H9.62372V3.80952C9.62372 1.70667 7.96548 0 5.92229 0C3.8791 0 2.22086 1.70667 2.22086 3.80952V5.33333H1.48057C0.666258 5.33333 0 6.01905 0 6.85714V14.4762C0 15.3143 0.666258 16 1.48057 16H10.364C11.1783 16 11.8446 15.3143 11.8446 14.4762V6.85714C11.8446 6.01905 11.1783 5.33333 10.364 5.33333ZM5.92229 12.1905C5.10797 12.1905 4.44172 11.5048 4.44172 10.6667C4.44172 9.82857 5.10797 9.14286 5.92229 9.14286C6.7366 9.14286 7.40286 9.82857 7.40286 10.6667C7.40286 11.5048 6.7366 12.1905 5.92229 12.1905ZM3.70143 3.80952V5.33333H8.14315V3.80952C8.14315 2.54476 7.15116 1.52381 5.92229 1.52381C4.69341 1.52381 3.70143 2.54476 3.70143 3.80952Z" fill="#575757"/>
</svg>
