<svg width="13" height="16" viewBox="0 0 13 16" fill="none" xmlns="http://www.w3.org/2000/svg">
    <path
        d="M6.61283 2.729V0.415821C6.61283 0.0427271 7.04784 -0.139674 7.29757 0.125637L10.3587 3.26792C10.5199 3.43373 10.5199 3.69075 10.3587 3.85657L7.30562 6.99885C7.04784 7.25587 6.61283 7.07347 6.61283 6.70038V4.3872C3.60805 4.3872 1.23161 7.22271 1.89218 10.4313C2.2708 12.3134 3.75305 13.8306 5.57364 14.2203C8.44953 14.8421 11.0113 12.8108 11.3979 10.0665C11.4543 9.66855 11.7927 9.36178 12.1874 9.36178C12.6707 9.36178 13.0574 9.8012 12.993 10.2987C12.4935 13.9384 9.12621 16.633 5.31586 15.8702C2.80247 15.3644 0.780487 13.2834 0.289088 10.6966C-0.508428 6.44336 2.6333 2.729 6.61283 2.729Z"
        fill="white" />
</svg>
