<svg width="13" height="14" viewBox="0 0 13 14" fill="none" xmlns="http://www.w3.org/2000/svg">
<path fill-rule="evenodd" clip-rule="evenodd" d="M2.33333 14C1.90556 14 1.53935 13.8477 1.23472 13.5431C0.930093 13.2384 0.777778 12.8722 0.777778 12.4444V2.33333H0V0.777778H3.88889V0H8.55556V0.777778H12.4444V2.33333H11.6667V12.4444C11.6667 12.8722 11.5144 13.2384 11.2097 13.5431C10.9051 13.8477 10.5389 14 10.1111 14H2.33333ZM2.38725 2.33333H2.33333V12.4444H2.38725H10.1111V2.33333H2.38725ZM5.44444 10.8889H3.88889V3.88889H5.44444V10.8889ZM7 10.8889H8.55556V3.88889H7V10.8889Z" fill="#333333"/>
</svg>
