<svg width="80" height="80" viewBox="0 0 80 80" fill="none" xmlns="http://www.w3.org/2000/svg">
<rect width="80" height="80" fill="#D8D8D8" fill-opacity="0.01"/>
<g clip-path="url(#clip0_0_460)">
<path d="M58 42C58 44.762 55.762 47 53 47H27C24.239 47 22 44.762 22 42V16C22 13.238 24.239 11 27 11H53C55.762 11 58 13.238 58 16V42Z" fill="#42A5F5"/>
<path fill-rule="evenodd" clip-rule="evenodd" d="M47.6199 26.43V18L52.8799 17V42.12H47.6199V39.34C46.4999 41.43 44.6599 42.75 41.9999 42.75C37.1399 42.75 33.1899 38.32 33.1899 32.88C33.1899 27.43 37.1399 23 41.9999 23C44.6599 23 46.5099 24.33 47.6199 26.43ZM37.9999 32.88C37.9999 35.56 40.0229 37.75 42.5049 37.75C44.9769 37.75 46.9999 35.56 46.9999 32.88C46.9999 30.19 44.9769 28 42.5049 28C40.0229 28 37.9999 30.19 37.9999 32.88Z" fill="white"/>
<path d="M10.9941 68H9.21289L9.22461 67.0801H10.9941C11.6035 67.0801 12.1113 66.9531 12.5176 66.6992C12.9238 66.4414 13.2285 66.082 13.4316 65.6211C13.6387 65.1562 13.7422 64.6133 13.7422 63.9922V63.4707C13.7422 62.9824 13.6836 62.5488 13.5664 62.1699C13.4492 61.7871 13.2773 61.4648 13.0508 61.2031C12.8242 60.9375 12.5469 60.7363 12.2188 60.5996C11.8945 60.4629 11.5215 60.3945 11.0996 60.3945H9.17773V59.4688H11.0996C11.6582 59.4688 12.168 59.5625 12.6289 59.75C13.0898 59.9336 13.4863 60.2012 13.8184 60.5527C14.1543 60.9004 14.4121 61.3223 14.5918 61.8184C14.7715 62.3105 14.8613 62.8652 14.8613 63.4824V63.9922C14.8613 64.6094 14.7715 65.166 14.5918 65.6621C14.4121 66.1543 14.1523 66.5742 13.8125 66.9219C13.4766 67.2695 13.0703 67.5371 12.5938 67.7246C12.1211 67.9082 11.5879 68 10.9941 68ZM9.81641 59.4688V68H8.68555V59.4688H9.81641ZM20.1348 66.916V63.6523C20.1348 63.4023 20.084 63.1855 19.9824 63.002C19.8848 62.8145 19.7363 62.6699 19.5371 62.5684C19.3379 62.4668 19.0918 62.416 18.7988 62.416C18.5254 62.416 18.2852 62.4629 18.0781 62.5566C17.875 62.6504 17.7148 62.7734 17.5977 62.9258C17.4844 63.0781 17.4277 63.2422 17.4277 63.418H16.3438C16.3438 63.1914 16.4023 62.9668 16.5195 62.7441C16.6367 62.5215 16.8047 62.3203 17.0234 62.1406C17.2461 61.957 17.5117 61.8125 17.8203 61.707C18.1328 61.5977 18.4805 61.543 18.8633 61.543C19.3242 61.543 19.7305 61.6211 20.082 61.7773C20.4375 61.9336 20.7148 62.1699 20.9141 62.4863C21.1172 62.7988 21.2188 63.1914 21.2188 63.6641V66.6172C21.2188 66.8281 21.2363 67.0527 21.2715 67.291C21.3105 67.5293 21.3672 67.7344 21.4414 67.9062V68H20.3105C20.2559 67.875 20.2129 67.709 20.1816 67.502C20.1504 67.291 20.1348 67.0957 20.1348 66.916ZM20.3223 64.1562L20.334 64.918H19.2383C18.9297 64.918 18.6543 64.9434 18.4121 64.9941C18.1699 65.041 17.9668 65.1133 17.8027 65.2109C17.6387 65.3086 17.5137 65.4316 17.4277 65.5801C17.3418 65.7246 17.2988 65.8945 17.2988 66.0898C17.2988 66.2891 17.3438 66.4707 17.4336 66.6348C17.5234 66.7988 17.6582 66.9297 17.8379 67.0273C18.0215 67.1211 18.2461 67.168 18.5117 67.168C18.8438 67.168 19.1367 67.0977 19.3906 66.957C19.6445 66.8164 19.8457 66.6445 19.9941 66.4414C20.1465 66.2383 20.2285 66.041 20.2402 65.8496L20.7031 66.3711C20.6758 66.5352 20.6016 66.7168 20.4805 66.916C20.3594 67.1152 20.1973 67.3066 19.9941 67.4902C19.7949 67.6699 19.5566 67.8203 19.2793 67.9414C19.0059 68.0586 18.6973 68.1172 18.3535 68.1172C17.9238 68.1172 17.5469 68.0332 17.2227 67.8652C16.9023 67.6973 16.6523 67.4727 16.4727 67.1914C16.2969 66.9062 16.209 66.5879 16.209 66.2363C16.209 65.8965 16.2754 65.5977 16.4082 65.3398C16.541 65.0781 16.7324 64.8613 16.9824 64.6895C17.2324 64.5137 17.5332 64.3809 17.8848 64.291C18.2363 64.2012 18.6289 64.1562 19.0625 64.1562H20.3223ZM24.1016 61.6602V68H23.0117V61.6602H24.1016ZM22.9297 59.9785C22.9297 59.8027 22.9824 59.6543 23.0879 59.5332C23.1973 59.4121 23.3574 59.3516 23.5684 59.3516C23.7754 59.3516 23.9336 59.4121 24.043 59.5332C24.1562 59.6543 24.2129 59.8027 24.2129 59.9785C24.2129 60.1465 24.1562 60.291 24.043 60.4121C23.9336 60.5293 23.7754 60.5879 23.5684 60.5879C23.3574 60.5879 23.1973 60.5293 23.0879 60.4121C22.9824 60.291 22.9297 60.1465 22.9297 59.9785ZM27.0195 59V68H25.9297V59H27.0195ZM30.541 67.3438L32.3047 61.6602H33.4648L30.9219 68.9785C30.8633 69.1348 30.7852 69.3027 30.6875 69.4824C30.5938 69.666 30.4727 69.8398 30.3242 70.0039C30.1758 70.168 29.9961 70.3008 29.7852 70.4023C29.5781 70.5078 29.3301 70.5605 29.041 70.5605C28.9551 70.5605 28.8457 70.5488 28.7129 70.5254C28.5801 70.502 28.4863 70.4824 28.4316 70.4668L28.4258 69.5879C28.457 69.5918 28.5059 69.5957 28.5723 69.5996C28.6426 69.6074 28.6914 69.6113 28.7188 69.6113C28.9648 69.6113 29.1738 69.5781 29.3457 69.5117C29.5176 69.4492 29.6621 69.3418 29.7793 69.1895C29.9004 69.041 30.0039 68.8359 30.0898 68.5742L30.541 67.3438ZM29.2461 61.6602L30.8926 66.582L31.1738 67.7246L30.3945 68.123L28.0625 61.6602H29.2461ZM35.5215 62.9199V68H34.4316V61.6602H35.4629L35.5215 62.9199ZM35.2988 64.5898L34.7949 64.5723C34.7988 64.1387 34.8555 63.7383 34.9648 63.3711C35.0742 63 35.2363 62.6777 35.4512 62.4043C35.666 62.1309 35.9336 61.9199 36.2539 61.7715C36.5742 61.6191 36.9453 61.543 37.3672 61.543C37.6641 61.543 37.9375 61.5859 38.1875 61.6719C38.4375 61.7539 38.6543 61.8848 38.8379 62.0645C39.0215 62.2441 39.1641 62.4746 39.2656 62.7559C39.3672 63.0371 39.418 63.377 39.418 63.7754V68H38.334V63.8281C38.334 63.4961 38.2773 63.2305 38.1641 63.0312C38.0547 62.832 37.8984 62.6875 37.6953 62.5977C37.4922 62.5039 37.2539 62.457 36.9805 62.457C36.6602 62.457 36.3926 62.5137 36.1777 62.627C35.9629 62.7402 35.791 62.8965 35.6621 63.0957C35.5332 63.2949 35.4395 63.5234 35.3809 63.7812C35.3262 64.0352 35.2988 64.3047 35.2988 64.5898ZM39.4062 63.9922L38.6797 64.2148C38.6836 63.8672 38.7402 63.5332 38.8496 63.2129C38.9629 62.8926 39.125 62.6074 39.3359 62.3574C39.5508 62.1074 39.8145 61.9102 40.127 61.7656C40.4395 61.6172 40.7969 61.543 41.1992 61.543C41.5391 61.543 41.8398 61.5879 42.1016 61.6777C42.3672 61.7676 42.5898 61.9062 42.7695 62.0938C42.9531 62.2773 43.0918 62.5137 43.1855 62.8027C43.2793 63.0918 43.3262 63.4355 43.3262 63.834V68H42.2363V63.8223C42.2363 63.4668 42.1797 63.1914 42.0664 62.9961C41.957 62.7969 41.8008 62.6582 41.5977 62.5801C41.3984 62.498 41.1602 62.457 40.8828 62.457C40.6445 62.457 40.4336 62.498 40.25 62.5801C40.0664 62.6621 39.9121 62.7754 39.7871 62.9199C39.6621 63.0605 39.5664 63.2227 39.5 63.4062C39.4375 63.5898 39.4062 63.7852 39.4062 63.9922ZM44.6797 64.9004V64.7656C44.6797 64.3086 44.7461 63.8848 44.8789 63.4941C45.0117 63.0996 45.2031 62.7578 45.4531 62.4688C45.7031 62.1758 46.0059 61.9492 46.3613 61.7891C46.7168 61.625 47.1152 61.543 47.5566 61.543C48.002 61.543 48.4023 61.625 48.7578 61.7891C49.1172 61.9492 49.4219 62.1758 49.6719 62.4688C49.9258 62.7578 50.1191 63.0996 50.252 63.4941C50.3848 63.8848 50.4512 64.3086 50.4512 64.7656V64.9004C50.4512 65.3574 50.3848 65.7812 50.252 66.1719C50.1191 66.5625 49.9258 66.9043 49.6719 67.1973C49.4219 67.4863 49.1191 67.7129 48.7637 67.877C48.4121 68.0371 48.0137 68.1172 47.5684 68.1172C47.123 68.1172 46.7227 68.0371 46.3672 67.877C46.0117 67.7129 45.707 67.4863 45.4531 67.1973C45.2031 66.9043 45.0117 66.5625 44.8789 66.1719C44.7461 65.7812 44.6797 65.3574 44.6797 64.9004ZM45.7637 64.7656V64.9004C45.7637 65.2168 45.8008 65.5156 45.875 65.7969C45.9492 66.0742 46.0605 66.3203 46.209 66.5352C46.3613 66.75 46.5508 66.9199 46.7773 67.0449C47.0039 67.166 47.2676 67.2266 47.5684 67.2266C47.8652 67.2266 48.125 67.166 48.3477 67.0449C48.5742 66.9199 48.7617 66.75 48.9102 66.5352C49.0586 66.3203 49.1699 66.0742 49.2441 65.7969C49.3223 65.5156 49.3613 65.2168 49.3613 64.9004V64.7656C49.3613 64.4531 49.3223 64.1582 49.2441 63.8809C49.1699 63.5996 49.0566 63.3516 48.9043 63.1367C48.7559 62.918 48.5684 62.7461 48.3418 62.6211C48.1191 62.4961 47.8574 62.4336 47.5566 62.4336C47.2598 62.4336 46.998 62.4961 46.7715 62.6211C46.5488 62.7461 46.3613 62.918 46.209 63.1367C46.0605 63.3516 45.9492 63.5996 45.875 63.8809C45.8008 64.1582 45.7637 64.4531 45.7637 64.7656ZM54.4648 61.6602V62.4922H51.0371V61.6602H54.4648ZM52.1973 60.1191H53.2812V66.4297C53.2812 66.6445 53.3145 66.8066 53.3809 66.916C53.4473 67.0254 53.5332 67.0977 53.6387 67.1328C53.7441 67.168 53.8574 67.1855 53.9785 67.1855C54.0684 67.1855 54.1621 67.1777 54.2598 67.1621C54.3613 67.1426 54.4375 67.127 54.4883 67.1152L54.4941 68C54.4082 68.0273 54.2949 68.0527 54.1543 68.0762C54.0176 68.1035 53.8516 68.1172 53.6562 68.1172C53.3906 68.1172 53.1465 68.0645 52.9238 67.959C52.7012 67.8535 52.5234 67.6777 52.3906 67.4316C52.2617 67.1816 52.1973 66.8457 52.1973 66.4238V60.1191ZM56.9141 61.6602V68H55.8242V61.6602H56.9141ZM55.7422 59.9785C55.7422 59.8027 55.7949 59.6543 55.9004 59.5332C56.0098 59.4121 56.1699 59.3516 56.3809 59.3516C56.5879 59.3516 56.7461 59.4121 56.8555 59.5332C56.9688 59.6543 57.0254 59.8027 57.0254 59.9785C57.0254 60.1465 56.9688 60.291 56.8555 60.4121C56.7461 60.5293 56.5879 60.5879 56.3809 60.5879C56.1699 60.5879 56.0098 60.5293 55.9004 60.4121C55.7949 60.291 55.7422 60.1465 55.7422 59.9785ZM58.3672 64.9004V64.7656C58.3672 64.3086 58.4336 63.8848 58.5664 63.4941C58.6992 63.0996 58.8906 62.7578 59.1406 62.4688C59.3906 62.1758 59.6934 61.9492 60.0488 61.7891C60.4043 61.625 60.8027 61.543 61.2441 61.543C61.6895 61.543 62.0898 61.625 62.4453 61.7891C62.8047 61.9492 63.1094 62.1758 63.3594 62.4688C63.6133 62.7578 63.8066 63.0996 63.9395 63.4941C64.0723 63.8848 64.1387 64.3086 64.1387 64.7656V64.9004C64.1387 65.3574 64.0723 65.7812 63.9395 66.1719C63.8066 66.5625 63.6133 66.9043 63.3594 67.1973C63.1094 67.4863 62.8066 67.7129 62.4512 67.877C62.0996 68.0371 61.7012 68.1172 61.2559 68.1172C60.8105 68.1172 60.4102 68.0371 60.0547 67.877C59.6992 67.7129 59.3945 67.4863 59.1406 67.1973C58.8906 66.9043 58.6992 66.5625 58.5664 66.1719C58.4336 65.7812 58.3672 65.3574 58.3672 64.9004ZM59.4512 64.7656V64.9004C59.4512 65.2168 59.4883 65.5156 59.5625 65.7969C59.6367 66.0742 59.748 66.3203 59.8965 66.5352C60.0488 66.75 60.2383 66.9199 60.4648 67.0449C60.6914 67.166 60.9551 67.2266 61.2559 67.2266C61.5527 67.2266 61.8125 67.166 62.0352 67.0449C62.2617 66.9199 62.4492 66.75 62.5977 66.5352C62.7461 66.3203 62.8574 66.0742 62.9316 65.7969C63.0098 65.5156 63.0488 65.2168 63.0488 64.9004V64.7656C63.0488 64.4531 63.0098 64.1582 62.9316 63.8809C62.8574 63.5996 62.7441 63.3516 62.5918 63.1367C62.4434 62.918 62.2559 62.7461 62.0293 62.6211C61.8066 62.4961 61.5449 62.4336 61.2441 62.4336C60.9473 62.4336 60.6855 62.4961 60.459 62.6211C60.2363 62.7461 60.0488 62.918 59.8965 63.1367C59.748 63.3516 59.6367 63.5996 59.5625 63.8809C59.4883 64.1582 59.4512 64.4531 59.4512 64.7656ZM66.582 63.0137V68H65.498V61.6602H66.5234L66.582 63.0137ZM66.3242 64.5898L65.873 64.5723C65.877 64.1387 65.9414 63.7383 66.0664 63.3711C66.1914 63 66.3672 62.6777 66.5938 62.4043C66.8203 62.1309 67.0898 61.9199 67.4023 61.7715C67.7188 61.6191 68.0684 61.543 68.4512 61.543C68.7637 61.543 69.0449 61.5859 69.2949 61.6719C69.5449 61.7539 69.7578 61.8867 69.9336 62.0703C70.1133 62.2539 70.25 62.4922 70.3438 62.7852C70.4375 63.0742 70.4844 63.4277 70.4844 63.8457V68H69.3945V63.834C69.3945 63.502 69.3457 63.2363 69.248 63.0371C69.1504 62.834 69.0078 62.6875 68.8203 62.5977C68.6328 62.5039 68.4023 62.457 68.1289 62.457C67.8594 62.457 67.6133 62.5137 67.3906 62.627C67.1719 62.7402 66.9824 62.8965 66.8223 63.0957C66.666 63.2949 66.543 63.5234 66.4531 63.7812C66.3672 64.0352 66.3242 64.3047 66.3242 64.5898Z" fill="#333333"/>
</g>
<defs>
<clipPath id="clip0_0_460">
<rect width="64" height="60" fill="white" transform="translate(7.5 11)"/>
</clipPath>
</defs>
</svg>
