<svg width="20" height="20" viewBox="0 0 20 20" fill="none" xmlns="http://www.w3.org/2000/svg">
<path fill-rule="evenodd" clip-rule="evenodd" d="M10 4C9.45 4 8.97917 3.80417 8.5875 3.4125C8.19583 3.02083 8 2.55 8 2C8 1.45 8.19583 0.979167 8.5875 0.5875C8.97917 0.195833 9.45 0 10 0C10.55 0 11.0208 0.195833 11.4125 0.5875C11.8042 0.979167 12 1.45 12 2C12 2.55 11.8042 3.02083 11.4125 3.4125C11.0208 3.80417 10.55 4 10 4ZM6.65 8L2.3 3.65L3.7 2.25L8.05 6.6L6.65 8ZM0.5875 11.4125C0.979167 11.8042 1.45 12 2 12C2.55 12 3.02083 11.8042 3.4125 11.4125C3.80417 11.0208 4 10.55 4 10C4 9.45 3.80417 8.97917 3.4125 8.5875C3.02083 8.19583 2.55 8 2 8C1.45 8 0.979167 8.19583 0.5875 8.5875C0.195833 8.97917 0 9.45 0 10C0 10.55 0.195833 11.0208 0.5875 11.4125ZM2.25 16.3L3.65 17.7L8 13.35L6.6 11.95L2.25 16.3ZM8.5875 19.4125C8.97917 19.8042 9.45 20 10 20C10.55 20 11.0208 19.8042 11.4125 19.4125C11.8042 19.0208 12 18.55 12 18C12 17.45 11.8042 16.9792 11.4125 16.5875C11.0208 16.1958 10.55 16 10 16C9.45 16 8.97917 16.1958 8.5875 16.5875C8.19583 16.9792 8 17.45 8 18C8 18.55 8.19583 19.0208 8.5875 19.4125ZM11.95 6.6L13.35 8.05L17.75 3.65L16.35 2.25L11.95 6.6ZM16.35 17.7L12 13.35L13.4 11.95L17.75 16.3L16.35 17.7ZM16.5875 11.4125C16.9792 11.8042 17.45 12 18 12C18.55 12 19.0208 11.8042 19.4125 11.4125C19.8042 11.0208 20 10.55 20 10C20 9.45 19.8042 8.97917 19.4125 8.5875C19.0208 8.19583 18.55 8 18 8C17.45 8 16.9792 8.19583 16.5875 8.5875C16.1958 8.97917 16 9.45 16 10C16 10.55 16.1958 11.0208 16.5875 11.4125Z" fill="#333333"/>
</svg>
