<svg width="60" height="60" viewBox="0 0 60 60" fill="none" xmlns="http://www.w3.org/2000/svg">
<path d="M6 36C4.35 36 2.9375 35.4125 1.7625 34.2375C0.5875 33.0625 0 31.65 0 30C0 28.35 0.5875 26.9375 1.7625 25.7625C2.9375 24.5875 4.35 24 6 24C7.65 24 9.0625 24.5875 10.2375 25.7625C11.4125 26.9375 12 28.35 12 30C12 31.65 11.4125 33.0625 10.2375 34.2375C9.0625 35.4125 7.65 36 6 36Z" fill="#34A852"/>
<path d="M10.95 53.1L6.75 48.9L19.8 35.85L24 40.05L10.95 53.1Z" fill="#333333"/>
<path d="M19.9499 24L6.8999 10.95L11.0999 6.75L24.1499 19.8L19.9499 24Z" fill="#333333"/>
<path d="M30 60C28.35 60 26.9375 59.4125 25.7625 58.2375C24.5875 57.0625 24 55.65 24 54C24 52.35 24.5875 50.9375 25.7625 49.7625C26.9375 48.5875 28.35 48 30 48C31.65 48 33.0625 48.5875 34.2375 49.7625C35.4125 50.9375 36 52.35 36 54C36 55.65 35.4125 57.0625 34.2375 58.2375C33.0625 59.4125 31.65 60 30 60Z" fill="#1B73E8"/>
<path d="M30 12C28.35 12 26.9375 11.4125 25.7625 10.2375C24.5875 9.0625 24 7.65 24 6C24 4.35 24.5875 2.9375 25.7625 1.7625C26.9375 0.5875 28.35 0 30 0C31.65 0 33.0625 0.5875 34.2375 1.7625C35.4125 2.9375 36 4.35 36 6C36 7.65 35.4125 9.0625 34.2375 10.2375C33.0625 11.4125 31.65 12 30 12Z" fill="#EA4336"/>
<path d="M40.0501 24.15L35.8501 19.8L49.0501 6.75L53.2501 10.95L40.0501 24.15Z" fill="#333333"/>
<path d="M49.05 53.1L36 40.05L40.2 35.85L53.25 48.9L49.05 53.1Z" fill="#333333"/>
<path d="M54 36C52.35 36 50.9375 35.4125 49.7625 34.2375C48.5875 33.0625 48 31.65 48 30C48 28.35 48.5875 26.9375 49.7625 25.7625C50.9375 24.5875 52.35 24 54 24C55.65 24 57.0625 24.5875 58.2375 25.7625C59.4125 26.9375 60 28.35 60 30C60 31.65 59.4125 33.0625 58.2375 34.2375C57.0625 35.4125 55.65 36 54 36Z" fill="#FABD05"/>
</svg>
