<svg width="12" height="12" viewBox="0 0 12 12" fill="none" xmlns="http://www.w3.org/2000/svg">
<path fill-rule="evenodd" clip-rule="evenodd" d="M0.391667 11.6083C0.652778 11.8694 0.966667 12 1.33333 12H10.6667C11.0333 12 11.3472 11.8694 11.6083 11.6083C11.8694 11.3472 12 11.0333 12 10.6667V6H10.6667V10.6667H1.33333V1.33333H6V0H1.33333C0.966667 0 0.652778 0.130556 0.391667 0.391667C0.130556 0.652778 0 0.966667 0 1.33333V10.6667C0 11.0333 0.130556 11.3472 0.391667 11.6083ZM3.53333 7.53333L4.46667 8.46667L10.6667 2.26667V4.66667H12V0H7.33333V1.33333H9.73333L3.53333 7.53333Z" fill="#333333"/>
</svg>
