<svg width="18" height="18" viewBox="0 0 18 18" fill="none" xmlns="http://www.w3.org/2000/svg">
<path fill-rule="evenodd" clip-rule="evenodd" d="M2.9875 15.7125C4.69583 17.2375 6.7 18 9 18C10.25 18 11.4208 17.7625 12.5125 17.2875C13.6042 16.8125 14.5542 16.1708 15.3625 15.3625C16.1708 14.5542 16.8125 13.6042 17.2875 12.5125C17.7625 11.4208 18 10.25 18 9C18 7.75 17.7625 6.57917 17.2875 5.4875C16.8125 4.39583 16.1708 3.44583 15.3625 2.6375C14.5542 1.82917 13.6042 1.1875 12.5125 0.7125C11.4208 0.2375 10.25 0 9 0C7.63333 0 6.3375 0.291667 5.1125 0.875C3.8875 1.45833 2.85 2.28333 2 3.35V1H0V7H6V5H3.25C3.93333 4.06667 4.775 3.33333 5.775 2.8C6.775 2.26667 7.85 2 9 2C10.95 2 12.6042 2.67917 13.9625 4.0375C15.3208 5.39583 16 7.05 16 9C16 10.95 15.3208 12.6042 13.9625 13.9625C12.6042 15.3208 10.95 16 9 16C7.25 16 5.72083 15.4333 4.4125 14.3C3.10417 13.1667 2.33333 11.7333 2.1 10H0.05C0.3 12.2833 1.27917 14.1875 2.9875 15.7125ZM8 9.4L11.8 13.2L13.2 11.8L10 8.6V4H8V9.4Z" fill="black"/>
</svg>
