<svg width="14" height="14" viewBox="0 0 14 14" fill="none" xmlns="http://www.w3.org/2000/svg">
<path fill-rule="evenodd" clip-rule="evenodd" d="M0.732117 7.00004C0.732117 3.31337 3.63109 0.333374 7.21752 0.333374C10.804 0.333374 13.7029 3.31337 13.7029 7.00004C13.7029 10.6867 10.804 13.6667 7.21752 13.6667C3.63109 13.6667 0.732117 10.6867 0.732117 7.00004ZM9.0918 9.86671C9.34473 10.1267 9.75331 10.1267 10.0062 9.86671C10.2527 9.60671 10.2527 9.18004 10.0062 8.92671L8.13196 7.00004L10.0062 5.07337C10.2592 4.81337 10.2592 4.39337 10.0062 4.13337C9.75331 3.87337 9.34473 3.87337 9.0918 4.13337L7.21752 6.06004L5.34324 4.13337C5.09031 3.87337 4.68173 3.87337 4.4288 4.13337C4.17587 4.39337 4.17587 4.81337 4.4288 5.07337L6.30308 7.00004L4.4288 8.92671C4.17587 9.18671 4.17587 9.60671 4.4288 9.86671C4.68173 10.1267 5.09031 10.1267 5.34324 9.86671L7.21752 7.94004L9.0918 9.86671Z" fill="#949494"/>
</svg>
