<svg width="80" height="80" viewBox="0 0 80 80" fill="none" xmlns="http://www.w3.org/2000/svg">
<rect width="80" height="80" fill="#D8D8D8" fill-opacity="0.01"/>
<g clip-path="url(#clip0_0_454)">
<path d="M61 19.3081C60.8 23.4081 58 28.9081 52.4 35.9081C46.7 43.3081 41.9 46.9081 37.9 46.9081C35.5 46.9081 33.4 44.7081 31.7 40.2081C30.6 36.1081 29.4 32.0081 28.3 27.9081C27 23.4081 25.7 21.2081 24.3 21.2081C24 21.2081 22.9 21.7081 21 23.0081L19 20.7081C21.1 18.9081 23 17.6081 25 15.8081C27.8 13.4081 29.8 12.2081 31.2 12.1081C34.5 11.8081 36.5 14.0081 37.2 18.7081C38 23.8081 38.7 26.5081 39 27.7081C39.9 31.9081 41 34.1081 42.1 34.1081C43 34.1081 44.3 32.7081 46.1 30.0081C47.9 27.2081 48.8 25.2081 48.9 23.7081C49.2 21.3081 48.2 20.1081 46.1 20.1081C45.1 20.1081 44 20.6081 42.9 21.0081C45 14.3081 49 10.8081 54.8 11.0081C59.2 11.1081 61.2 13.9081 61 19.3081Z" fill="#29B6F6"/>
<path d="M26.0996 66.7051L28.6133 59.4688H29.8379L26.6797 68H25.8066L26.0996 66.7051ZM23.75 59.4688L26.2402 66.7051L26.5508 68H25.6777L22.5254 59.4688H23.75ZM32 61.6602V68H30.9102V61.6602H32ZM30.8281 59.9785C30.8281 59.8027 30.8809 59.6543 30.9863 59.5332C31.0957 59.4121 31.2559 59.3516 31.4668 59.3516C31.6738 59.3516 31.832 59.4121 31.9414 59.5332C32.0547 59.6543 32.1113 59.8027 32.1113 59.9785C32.1113 60.1465 32.0547 60.291 31.9414 60.4121C31.832 60.5293 31.6738 60.5879 31.4668 60.5879C31.2559 60.5879 31.0957 60.5293 30.9863 60.4121C30.8809 60.291 30.8281 60.1465 30.8281 59.9785ZM34.8184 62.9199V68H33.7285V61.6602H34.7598L34.8184 62.9199ZM34.5957 64.5898L34.0918 64.5723C34.0957 64.1387 34.1523 63.7383 34.2617 63.3711C34.3711 63 34.5332 62.6777 34.748 62.4043C34.9629 62.1309 35.2305 61.9199 35.5508 61.7715C35.8711 61.6191 36.2422 61.543 36.6641 61.543C36.9609 61.543 37.2344 61.5859 37.4844 61.6719C37.7344 61.7539 37.9512 61.8848 38.1348 62.0645C38.3184 62.2441 38.4609 62.4746 38.5625 62.7559C38.6641 63.0371 38.7148 63.377 38.7148 63.7754V68H37.6309V63.8281C37.6309 63.4961 37.5742 63.2305 37.4609 63.0312C37.3516 62.832 37.1953 62.6875 36.9922 62.5977C36.7891 62.5039 36.5508 62.457 36.2773 62.457C35.957 62.457 35.6895 62.5137 35.4746 62.627C35.2598 62.7402 35.0879 62.8965 34.959 63.0957C34.8301 63.2949 34.7363 63.5234 34.6777 63.7812C34.623 64.0352 34.5957 64.3047 34.5957 64.5898ZM38.7031 63.9922L37.9766 64.2148C37.9805 63.8672 38.0371 63.5332 38.1465 63.2129C38.2598 62.8926 38.4219 62.6074 38.6328 62.3574C38.8477 62.1074 39.1113 61.9102 39.4238 61.7656C39.7363 61.6172 40.0938 61.543 40.4961 61.543C40.8359 61.543 41.1367 61.5879 41.3984 61.6777C41.6641 61.7676 41.8867 61.9062 42.0664 62.0938C42.25 62.2773 42.3887 62.5137 42.4824 62.8027C42.5762 63.0918 42.623 63.4355 42.623 63.834V68H41.5332V63.8223C41.5332 63.4668 41.4766 63.1914 41.3633 62.9961C41.2539 62.7969 41.0977 62.6582 40.8945 62.5801C40.6953 62.498 40.457 62.457 40.1797 62.457C39.9414 62.457 39.7305 62.498 39.5469 62.5801C39.3633 62.6621 39.209 62.7754 39.084 62.9199C38.959 63.0605 38.8633 63.2227 38.7969 63.4062C38.7344 63.5898 38.7031 63.7852 38.7031 63.9922ZM46.8945 68.1172C46.4531 68.1172 46.0527 68.043 45.6934 67.8945C45.3379 67.7422 45.0312 67.5293 44.7734 67.2559C44.5195 66.9824 44.3242 66.6582 44.1875 66.2832C44.0508 65.9082 43.9824 65.498 43.9824 65.0527V64.8066C43.9824 64.291 44.0586 63.832 44.2109 63.4297C44.3633 63.0234 44.5703 62.6797 44.832 62.3984C45.0938 62.1172 45.3906 61.9043 45.7227 61.7598C46.0547 61.6152 46.3984 61.543 46.7539 61.543C47.207 61.543 47.5977 61.6211 47.9258 61.7773C48.2578 61.9336 48.5293 62.1523 48.7402 62.4336C48.9512 62.7109 49.1074 63.0391 49.209 63.418C49.3105 63.793 49.3613 64.2031 49.3613 64.6484V65.1348H44.627V64.25H48.2773V64.168C48.2617 63.8867 48.2031 63.6133 48.1016 63.3477C48.0039 63.082 47.8477 62.8633 47.6328 62.6914C47.418 62.5195 47.125 62.4336 46.7539 62.4336C46.5078 62.4336 46.2812 62.4863 46.0742 62.5918C45.8672 62.6934 45.6895 62.8457 45.541 63.0488C45.3926 63.252 45.2773 63.5 45.1953 63.793C45.1133 64.0859 45.0723 64.4238 45.0723 64.8066V65.0527C45.0723 65.3535 45.1133 65.6367 45.1953 65.9023C45.2812 66.1641 45.4043 66.3945 45.5645 66.5938C45.7285 66.793 45.9258 66.9492 46.1562 67.0625C46.3906 67.1758 46.6562 67.2324 46.9531 67.2324C47.3359 67.2324 47.6602 67.1543 47.9258 66.998C48.1914 66.8418 48.4238 66.6328 48.623 66.3711L49.2793 66.8926C49.1426 67.0996 48.9688 67.2969 48.7578 67.4844C48.5469 67.6719 48.2871 67.8242 47.9785 67.9414C47.6738 68.0586 47.3125 68.1172 46.8945 68.1172ZM50.3398 64.9004V64.7656C50.3398 64.3086 50.4062 63.8848 50.5391 63.4941C50.6719 63.0996 50.8633 62.7578 51.1133 62.4688C51.3633 62.1758 51.666 61.9492 52.0215 61.7891C52.377 61.625 52.7754 61.543 53.2168 61.543C53.6621 61.543 54.0625 61.625 54.418 61.7891C54.7773 61.9492 55.082 62.1758 55.332 62.4688C55.5859 62.7578 55.7793 63.0996 55.9121 63.4941C56.0449 63.8848 56.1113 64.3086 56.1113 64.7656V64.9004C56.1113 65.3574 56.0449 65.7812 55.9121 66.1719C55.7793 66.5625 55.5859 66.9043 55.332 67.1973C55.082 67.4863 54.7793 67.7129 54.4238 67.877C54.0723 68.0371 53.6738 68.1172 53.2285 68.1172C52.7832 68.1172 52.3828 68.0371 52.0273 67.877C51.6719 67.7129 51.3672 67.4863 51.1133 67.1973C50.8633 66.9043 50.6719 66.5625 50.5391 66.1719C50.4062 65.7812 50.3398 65.3574 50.3398 64.9004ZM51.4238 64.7656V64.9004C51.4238 65.2168 51.4609 65.5156 51.5352 65.7969C51.6094 66.0742 51.7207 66.3203 51.8691 66.5352C52.0215 66.75 52.2109 66.9199 52.4375 67.0449C52.6641 67.166 52.9277 67.2266 53.2285 67.2266C53.5254 67.2266 53.7852 67.166 54.0078 67.0449C54.2344 66.9199 54.4219 66.75 54.5703 66.5352C54.7188 66.3203 54.8301 66.0742 54.9043 65.7969C54.9824 65.5156 55.0215 65.2168 55.0215 64.9004V64.7656C55.0215 64.4531 54.9824 64.1582 54.9043 63.8809C54.8301 63.5996 54.7168 63.3516 54.5645 63.1367C54.416 62.918 54.2285 62.7461 54.002 62.6211C53.7793 62.4961 53.5176 62.4336 53.2168 62.4336C52.9199 62.4336 52.6582 62.4961 52.4316 62.6211C52.209 62.7461 52.0215 62.918 51.8691 63.1367C51.7207 63.3516 51.6094 63.5996 51.5352 63.8809C51.4609 64.1582 51.4238 64.4531 51.4238 64.7656Z" fill="#333333"/>
</g>
<defs>
<clipPath id="clip0_0_454">
<rect width="42.0136" height="60" fill="white" transform="translate(19 11)"/>
</clipPath>
</defs>
</svg>
