<svg width="80" height="80" viewBox="0 0 80 80" fill="none" xmlns="http://www.w3.org/2000/svg">
<rect width="80" height="80" fill="#D8D8D8" fill-opacity="0.01"/>
<path fill-rule="evenodd" clip-rule="evenodd" d="M32.6646 10H30.5396L33.0526 18.297V24H35.1646V18.039L37.6226 10.003H35.4756L34.1676 15.496H34.0346L32.6646 10ZM38.2846 14.049C37.7796 14.512 37.5256 15.139 37.5256 15.923V15.922H37.5236V21.178C37.5236 22.039 37.7686 22.725 38.2616 23.233C38.7586 23.741 39.4126 24 40.2356 24C41.0906 24 41.7566 23.753 42.2426 23.259C42.7286 22.763 42.9706 22.081 42.9706 21.215V15.98C42.9706 15.207 42.7226 14.574 42.2276 14.086C41.7326 13.594 41.0976 13.349 40.3196 13.349C39.4666 13.349 38.7886 13.583 38.2846 14.049ZM39.4556 21.368C39.4556 21.643 39.5216 21.862 39.6606 22.014C39.7926 22.164 39.9826 22.24 40.2316 22.24C40.4866 22.24 40.6856 22.163 40.8356 22.006C40.9846 21.855 41.0616 21.64 41.0616 21.368V15.846C41.0616 15.626 40.9826 15.447 40.8306 15.31C40.6796 15.175 40.4786 15.105 40.2316 15.105C40.0026 15.105 39.8146 15.175 39.6706 15.31C39.5276 15.447 39.4556 15.626 39.4556 15.846V21.368ZM49.9186 24V13.605H48.0436V21.413C47.8686 21.633 47.6756 21.816 47.4626 21.957C47.2556 22.101 47.0816 22.172 46.9406 22.172C46.7676 22.172 46.6356 22.114 46.5606 22.01C46.4806 21.901 46.4406 21.727 46.4406 21.491V13.605H44.5666V22.191C44.5666 22.797 44.6746 23.248 44.8956 23.548C45.1166 23.851 45.4416 24 45.8766 24C46.2276 24 46.5906 23.89 46.9626 23.675C47.3386 23.462 47.6976 23.148 48.0436 22.734V24H49.9186Z" fill="#455A64"/>
<path d="M54.7995 30.439C54.7995 28.097 52.8595 26.199 50.4705 26.199C47.0585 26.056 43.5655 25.996 40.0005 26.001C36.4375 25.996 32.9445 26.057 29.5305 26.199C27.1435 26.199 25.2035 28.097 25.2035 30.439C25.0615 32.291 24.9955 34.145 25.0005 36.001C24.9955 37.854 25.0605 39.708 25.2045 41.562C25.2045 43.907 27.1425 45.805 29.5305 45.805C32.9445 45.945 36.4375 46.005 40.0005 46C43.5645 46.008 47.0585 45.944 50.4705 45.805C52.8595 45.805 54.7995 43.907 54.7995 41.562C54.9415 39.708 55.0085 37.854 55.0005 36.001C55.0085 34.145 54.9415 32.291 54.7995 30.439Z" fill="white"/>
<path fill-rule="evenodd" clip-rule="evenodd" d="M42.6074 34.579C42.6954 34.491 42.7794 34.428 42.8654 34.386C43.1644 34.236 43.4284 34.306 43.5624 34.484C43.6614 34.616 43.7144 34.831 43.7144 35.109V40.114C43.7144 40.435 43.6524 40.583 43.5954 40.654C43.5724 40.686 43.5004 40.777 43.2694 40.777C43.1474 40.777 43.0344 40.752 42.9234 40.697C42.8244 40.646 42.7174 40.566 42.6074 40.455V34.579ZM49.3934 34.526C49.4834 34.404 49.6324 34.346 49.8514 34.346C50.0614 34.346 50.2054 34.402 50.2904 34.521C50.3584 34.623 50.4414 34.832 50.4414 35.278V36.052H49.2484V35.278C49.2484 34.825 49.3294 34.617 49.3934 34.526Z" fill="#F44336"/>
<path fill-rule="evenodd" clip-rule="evenodd" d="M54.7995 30.439C54.7995 28.097 52.8595 26.199 50.4705 26.199C47.0585 26.056 43.5655 25.996 40.0005 26.001C36.4375 25.996 32.9445 26.057 29.5305 26.199C27.1435 26.199 25.2035 28.097 25.2035 30.439C25.0615 32.291 24.9955 34.145 25.0005 36.001C24.9955 37.854 25.0605 39.708 25.2045 41.562C25.2045 43.907 27.1425 45.805 29.5305 45.805C32.9445 45.945 36.4375 46.005 40.0005 46C43.5645 46.008 47.0585 45.944 50.4705 45.805C52.8595 45.805 54.7995 43.907 54.7995 41.562C54.9415 39.708 55.0085 37.854 55.0005 36.001C55.0085 34.145 54.9415 32.291 54.7995 30.439ZM31.7015 42.382C31.7015 42.493 31.6095 42.586 31.4955 42.586H29.4465C29.3325 42.586 29.2405 42.493 29.2405 42.382V31.352H27.3265C27.2135 31.352 27.1215 31.26 27.1215 31.149V29.245C27.1215 29.133 27.2135 29.041 27.3265 29.041H33.6175C33.7315 29.041 33.8235 29.133 33.8235 29.245V31.149C33.8235 31.26 33.7325 31.352 33.6175 31.352H31.7015V42.382ZM38.7895 42.586C38.9035 42.586 38.9955 42.493 38.9955 42.382V42.381H38.9925V32.689C38.9925 32.577 38.9005 32.485 38.7865 32.485H36.9655C36.8505 32.485 36.7585 32.577 36.7585 32.689V39.972C36.6195 40.138 36.4615 40.282 36.2855 40.397C36.0685 40.544 35.9485 40.566 35.8965 40.566C35.7427 40.566 35.7051 40.5168 35.6918 40.4994L35.6915 40.499C35.6635 40.46 35.6195 40.361 35.6195 40.117V32.689C35.6195 32.577 35.5275 32.485 35.4135 32.485H33.5925C33.4775 32.485 33.3855 32.577 33.3855 32.689V40.789C33.3855 41.407 33.5085 41.886 33.7465 42.21C33.9995 42.551 34.3755 42.727 34.8635 42.727C35.2475 42.727 35.6265 42.618 36.0235 42.391C36.2755 42.249 36.5185 42.064 36.7615 41.831V42.382C36.7615 42.493 36.8535 42.586 36.9675 42.586H38.7895ZM46.0005 40.373C46.0005 41.109 45.8415 41.683 45.5275 42.081C45.2015 42.499 44.7305 42.707 44.1295 42.707C43.7465 42.707 43.3965 42.63 43.0835 42.474C42.9175 42.391 42.7565 42.283 42.6045 42.149V42.382C42.6045 42.496 42.5115 42.586 42.3985 42.586H40.5615C40.4475 42.586 40.3545 42.496 40.3545 42.382V29.242C40.3545 29.13 40.4465 29.039 40.5615 29.039H42.3985C42.5115 29.039 42.6045 29.13 42.6045 29.242V32.959C42.7545 32.823 42.9145 32.709 43.0785 32.616C43.3875 32.446 43.7035 32.36 44.0195 32.36C44.6605 32.36 45.1625 32.598 45.5035 33.066C45.8315 33.516 45.9985 34.167 45.9985 34.999L46.0005 40.373ZM52.5225 37.97C52.6362 37.97 52.729 37.8785 52.7295 37.766C52.7295 37.7657 52.7295 37.7653 52.7295 37.765M52.5225 37.97H49.2495ZM49.2495 37.97V39.591ZM49.2495 39.591C49.2495 40.183 49.3315 40.436 49.3975 40.542ZM49.3975 40.542C49.4505 40.63 49.5495 40.741 49.8355 40.741ZM49.8355 40.741C50.0655 40.741 50.2235 40.686 50.3045 40.577ZM50.3045 40.577C50.3415 40.519 50.4435 40.297 50.4435 39.589ZM50.4435 39.589V38.914ZM50.4435 38.914C50.4435 38.8 50.5365 38.71 50.6505 38.71ZM50.6505 38.71H52.5225ZM52.5225 38.71C52.6365 38.71 52.7275 38.8 52.7275 38.914ZM52.7275 38.914V39.643ZM52.7275 39.643C52.7275 40.687 52.4785 41.487 51.9905 42.027ZM51.9905 42.027C51.5005 42.57 50.7605 42.847 49.7925 42.847ZM49.7925 42.847C48.9205 42.847 48.2185 42.551 47.7135 41.976ZM47.7135 41.976C47.2135 41.405 46.9585 40.622 46.9585 39.643ZM46.9585 39.643V35.291ZM46.9585 35.291C46.9585 34.399 47.2365 33.661 47.7885 33.095ZM47.7885 33.095C48.3385 32.527 49.0625 32.238 49.9325 32.238ZM49.9325 32.238C50.8225 32.238 51.5195 32.509 52.0045 33.041ZM52.0045 33.041C52.4845 33.567 52.7285 34.325 52.7285 35.292ZM52.7285 35.292V37.766ZM52.7285 37.766H52.7295Z" fill="#F44336"/>
<path d="M19.416 59.4688L21.6309 63.752L23.8516 59.4688H25.1348L22.1934 64.8125V68H21.0625V64.8125L18.1211 59.4688H19.416ZM25.3926 64.9004V64.7656C25.3926 64.3086 25.459 63.8848 25.5918 63.4941C25.7246 63.0996 25.916 62.7578 26.166 62.4688C26.416 62.1758 26.7188 61.9492 27.0742 61.7891C27.4297 61.625 27.8281 61.543 28.2695 61.543C28.7148 61.543 29.1152 61.625 29.4707 61.7891C29.8301 61.9492 30.1348 62.1758 30.3848 62.4688C30.6387 62.7578 30.832 63.0996 30.9648 63.4941C31.0977 63.8848 31.1641 64.3086 31.1641 64.7656V64.9004C31.1641 65.3574 31.0977 65.7812 30.9648 66.1719C30.832 66.5625 30.6387 66.9043 30.3848 67.1973C30.1348 67.4863 29.832 67.7129 29.4766 67.877C29.125 68.0371 28.7266 68.1172 28.2812 68.1172C27.8359 68.1172 27.4355 68.0371 27.0801 67.877C26.7246 67.7129 26.4199 67.4863 26.166 67.1973C25.916 66.9043 25.7246 66.5625 25.5918 66.1719C25.459 65.7812 25.3926 65.3574 25.3926 64.9004ZM26.4766 64.7656V64.9004C26.4766 65.2168 26.5137 65.5156 26.5879 65.7969C26.6621 66.0742 26.7734 66.3203 26.9219 66.5352C27.0742 66.75 27.2637 66.9199 27.4902 67.0449C27.7168 67.166 27.9805 67.2266 28.2812 67.2266C28.5781 67.2266 28.8379 67.166 29.0605 67.0449C29.2871 66.9199 29.4746 66.75 29.623 66.5352C29.7715 66.3203 29.8828 66.0742 29.957 65.7969C30.0352 65.5156 30.0742 65.2168 30.0742 64.9004V64.7656C30.0742 64.4531 30.0352 64.1582 29.957 63.8809C29.8828 63.5996 29.7695 63.3516 29.6172 63.1367C29.4688 62.918 29.2812 62.7461 29.0547 62.6211C28.832 62.4961 28.5703 62.4336 28.2695 62.4336C27.9727 62.4336 27.7109 62.4961 27.4844 62.6211C27.2617 62.7461 27.0742 62.918 26.9219 63.1367C26.7734 63.3516 26.6621 63.5996 26.5879 63.8809C26.5137 64.1582 26.4766 64.4531 26.4766 64.7656ZM36.4023 66.5352V61.6602H37.4922V68H36.4551L36.4023 66.5352ZM36.6074 65.1992L37.0586 65.1875C37.0586 65.6094 37.0137 66 36.9238 66.3594C36.8379 66.7148 36.6973 67.0234 36.502 67.2852C36.3066 67.5469 36.0508 67.752 35.7344 67.9004C35.418 68.0449 35.0332 68.1172 34.5801 68.1172C34.2715 68.1172 33.9883 68.0723 33.7305 67.9824C33.4766 67.8926 33.2578 67.7539 33.0742 67.5664C32.8906 67.3789 32.748 67.1348 32.6465 66.834C32.5488 66.5332 32.5 66.1719 32.5 65.75V61.6602H33.584V65.7617C33.584 66.0469 33.6152 66.2832 33.6777 66.4707C33.7441 66.6543 33.832 66.8008 33.9414 66.9102C34.0547 67.0156 34.1797 67.0898 34.3164 67.1328C34.457 67.1758 34.6016 67.1973 34.75 67.1973C35.2109 67.1973 35.5762 67.1094 35.8457 66.9336C36.1152 66.7539 36.3086 66.5137 36.4258 66.2129C36.5469 65.9082 36.6074 65.5703 36.6074 65.1992ZM41.7988 61.6602V62.4922H38.3711V61.6602H41.7988ZM39.5312 60.1191H40.6152V66.4297C40.6152 66.6445 40.6484 66.8066 40.7148 66.916C40.7812 67.0254 40.8672 67.0977 40.9727 67.1328C41.0781 67.168 41.1914 67.1855 41.3125 67.1855C41.4023 67.1855 41.4961 67.1777 41.5938 67.1621C41.6953 67.1426 41.7715 67.127 41.8223 67.1152L41.8281 68C41.7422 68.0273 41.6289 68.0527 41.4883 68.0762C41.3516 68.1035 41.1855 68.1172 40.9902 68.1172C40.7246 68.1172 40.4805 68.0645 40.2578 67.959C40.0352 67.8535 39.8574 67.6777 39.7246 67.4316C39.5957 67.1816 39.5312 66.8457 39.5312 66.4238V60.1191ZM46.9492 66.5352V61.6602H48.0391V68H47.002L46.9492 66.5352ZM47.1543 65.1992L47.6055 65.1875C47.6055 65.6094 47.5605 66 47.4707 66.3594C47.3848 66.7148 47.2441 67.0234 47.0488 67.2852C46.8535 67.5469 46.5977 67.752 46.2812 67.9004C45.9648 68.0449 45.5801 68.1172 45.127 68.1172C44.8184 68.1172 44.5352 68.0723 44.2773 67.9824C44.0234 67.8926 43.8047 67.7539 43.6211 67.5664C43.4375 67.3789 43.2949 67.1348 43.1934 66.834C43.0957 66.5332 43.0469 66.1719 43.0469 65.75V61.6602H44.1309V65.7617C44.1309 66.0469 44.1621 66.2832 44.2246 66.4707C44.291 66.6543 44.3789 66.8008 44.4883 66.9102C44.6016 67.0156 44.7266 67.0898 44.8633 67.1328C45.0039 67.1758 45.1484 67.1973 45.2969 67.1973C45.7578 67.1973 46.123 67.1094 46.3926 66.9336C46.6621 66.7539 46.8555 66.5137 46.9727 66.2129C47.0938 65.9082 47.1543 65.5703 47.1543 65.1992ZM49.6855 59H50.7754V66.7695L50.6816 68H49.6855V59ZM55.0586 64.7773V64.9004C55.0586 65.3613 55.0039 65.7891 54.8945 66.1836C54.7852 66.5742 54.625 66.9141 54.4141 67.2031C54.2031 67.4922 53.9453 67.7168 53.6406 67.877C53.3359 68.0371 52.9863 68.1172 52.5918 68.1172C52.1895 68.1172 51.8359 68.0488 51.5312 67.9121C51.2305 67.7715 50.9766 67.5703 50.7695 67.3086C50.5625 67.0469 50.3965 66.7305 50.2715 66.3594C50.1504 65.9883 50.0664 65.5703 50.0195 65.1055V64.5664C50.0664 64.0977 50.1504 63.6777 50.2715 63.3066C50.3965 62.9355 50.5625 62.6191 50.7695 62.3574C50.9766 62.0918 51.2305 61.8906 51.5312 61.7539C51.832 61.6133 52.1816 61.543 52.5801 61.543C52.9785 61.543 53.332 61.6211 53.6406 61.7773C53.9492 61.9297 54.207 62.1484 54.4141 62.4336C54.625 62.7188 54.7852 63.0605 54.8945 63.459C55.0039 63.8535 55.0586 64.293 55.0586 64.7773ZM53.9688 64.9004V64.7773C53.9688 64.4609 53.9395 64.1641 53.8809 63.8867C53.8223 63.6055 53.7285 63.3594 53.5996 63.1484C53.4707 62.9336 53.3008 62.7656 53.0898 62.6445C52.8789 62.5195 52.6191 62.457 52.3105 62.457C52.0371 62.457 51.7988 62.5039 51.5957 62.5977C51.3965 62.6914 51.2266 62.8184 51.0859 62.9785C50.9453 63.1348 50.8301 63.3145 50.7402 63.5176C50.6543 63.7168 50.5898 63.9238 50.5469 64.1387V65.5508C50.6094 65.8242 50.7109 66.0879 50.8516 66.3418C50.9961 66.5918 51.1875 66.7969 51.4258 66.957C51.668 67.1172 51.9668 67.1973 52.3223 67.1973C52.6152 67.1973 52.8652 67.1387 53.0723 67.0215C53.2832 66.9004 53.4531 66.7344 53.582 66.5234C53.7148 66.3125 53.8125 66.0684 53.875 65.791C53.9375 65.5137 53.9688 65.2168 53.9688 64.9004ZM59.0605 68.1172C58.6191 68.1172 58.2188 68.043 57.8594 67.8945C57.5039 67.7422 57.1973 67.5293 56.9395 67.2559C56.6855 66.9824 56.4902 66.6582 56.3535 66.2832C56.2168 65.9082 56.1484 65.498 56.1484 65.0527V64.8066C56.1484 64.291 56.2246 63.832 56.377 63.4297C56.5293 63.0234 56.7363 62.6797 56.998 62.3984C57.2598 62.1172 57.5566 61.9043 57.8887 61.7598C58.2207 61.6152 58.5645 61.543 58.9199 61.543C59.373 61.543 59.7637 61.6211 60.0918 61.7773C60.4238 61.9336 60.6953 62.1523 60.9062 62.4336C61.1172 62.7109 61.2734 63.0391 61.375 63.418C61.4766 63.793 61.5273 64.2031 61.5273 64.6484V65.1348H56.793V64.25H60.4434V64.168C60.4277 63.8867 60.3691 63.6133 60.2676 63.3477C60.1699 63.082 60.0137 62.8633 59.7988 62.6914C59.584 62.5195 59.291 62.4336 58.9199 62.4336C58.6738 62.4336 58.4473 62.4863 58.2402 62.5918C58.0332 62.6934 57.8555 62.8457 57.707 63.0488C57.5586 63.252 57.4434 63.5 57.3613 63.793C57.2793 64.0859 57.2383 64.4238 57.2383 64.8066V65.0527C57.2383 65.3535 57.2793 65.6367 57.3613 65.9023C57.4473 66.1641 57.5703 66.3945 57.7305 66.5938C57.8945 66.793 58.0918 66.9492 58.3223 67.0625C58.5566 67.1758 58.8223 67.2324 59.1191 67.2324C59.502 67.2324 59.8262 67.1543 60.0918 66.998C60.3574 66.8418 60.5898 66.6328 60.7891 66.3711L61.4453 66.8926C61.3086 67.0996 61.1348 67.2969 60.9238 67.4844C60.7129 67.6719 60.4531 67.8242 60.1445 67.9414C59.8398 68.0586 59.4785 68.1172 59.0605 68.1172Z" fill="#333333"/>
</svg>
